<?xml version="1.0" encoding="UTF-8"?>
<svg id="Layer_1" data-name="Layer 1" xmlns="http://www.w3.org/2000/svg" viewBox="0 0 512.99 472.07">
  <defs>
    <style>
      .cls-1 {
        fill: #ffa11e;
      }

      .cls-2 {
        fill: #ff920a;
      }

      .cls-3 {
        fill: #ffb73d;
      }

      .cls-4 {
        fill: #ffb033;
      }

      .cls-5 {
        fill: #ffbf47;
      }
    </style>
  </defs>
  <path class="cls-1" d="M506.12,344.74c0,.19-.09.48-.09.67-3.15,13.93-15.65,23.86-29.96,23.86H45.61c-12.69,0-24.14-7.82-28.72-19.75-.1-.19-.19-.38-.19-.57-7.73-20.13,7.06-41.8,28.63-41.8h166.8c10.5,0,18.89-8.49,18.89-18.89v-25.34c0-3.72,3.15-6.87,6.87-6.87h48.38c3.82,0,6.87,3.05,6.87,6.87v25.34c0,10.4,8.49,18.89,18.89,18.89h164.13c19.75,0,34.35,18.32,29.96,37.6Z"/>
  <path class="cls-4" d="M484.96,267.09h-116.54c-15.47,0-28.01-12.54-28.01-28.01v-6.09c0-15.47,12.54-28.01,28.01-28.01h115.95c14.41,0,26.39,10.95,27.88,25.28.19,1.81.36,3.62.53,5.43.03.34.06.68.09,1.02,1.47,16.34-11.51,30.38-27.92,30.38Z"/>
  <path class="cls-5" d="M370.45,62.11h-211.96c-15.47,0-28.01-12.54-28.01-28.01v-6.09c0-15.47,12.54-28.01,28.01-28.01h211.38c14.41,0,26.39,10.95,27.88,25.28.19,1.81.36,3.62.53,5.43.03.34.06.68.09,1.02,1.47,16.34-11.51,30.38-27.92,30.38Z"/>
  <path class="cls-2" d="M370.45,472.07h-211.96c-15.47,0-28.01-12.54-28.01-28.01v-6.09c0-15.47,12.54-28.01,28.01-28.01h211.38c14.41,0,26.39,10.95,27.88,25.28.19,1.81.36,3.62.53,5.43.03.34.06.68.09,1.02,1.47,16.34-11.51,30.38-27.92,30.38Z"/>
  <path class="cls-4" d="M182.13,232.99v6.09c0,15.47-12.54,28.01-28.01,28.01H28.02c-16.2,0-29.02-13.69-27.96-29.86.15-2.34.34-4.68.57-7.02,0-.08.02-.17.02-.25,1.42-14.23,13.55-24.98,27.85-24.98h125.62c15.47,0,28.01,12.54,28.01,28.01Z"/>
  <path class="cls-3" d="M463.06,164.5h-148.66c-10.43,0-18.89,8.46-18.89,18.89v20.7c0,3.8-3.08,6.88-6.88,6.88h-48.34c-3.8,0-6.88-3.08-6.88-6.88v-20.7c0-10.43-8.46-18.89-18.89-18.89H61.2c-22.29,0-37.2-23.02-28-43.31.13-.29.26-.57.39-.86,4.98-10.94,15.91-17.94,27.93-17.94h401.31c13.23,0,25,8.46,29.14,21.03.09.27.18.55.27.82,6.51,19.85-8.3,40.26-29.19,40.26Z"/>
</svg>